{"title":"Cars 2 (2011) DVDRip NL gesproken DutchReleaseTeam","uid":6815729,"size":736708529,"categoryP":"video","categoryS":"movies","magnet":"?xt=urn:btih:324d3439282b5bf51e0ffa77f82aeb65ee54565d&amp;dn=Cars+2+%282011%29+DVDRip+NL+gesproken+DutchReleaseTeam&amp;tr=udp%3A%2F%2Ftracker.openbittorrent.com%3A80&amp;tr=udp%3A%2F%2Fopen.demonii.com%3A1337&amp;tr=udp%3A%2F%2Ftracker.coppersurfer.tk%3A6969&amp;tr=udp%3A%2F%2Fexodus.desync.com%3A6969","seeders":28,"leechers":12,"uploader":"Koedje","files":-1,"time":1321195544,"description":" &lt;a href=&quot;http://img832.imageshack.us/img832/4940/cars2c.jpg&quot; rel=&quot;nofollow&quot; target=&quot;_NEW&quot;&gt;http://img832.imageshack.us/img832/4940/cars2c.jpg&lt;/a&gt;\n\n\nVerenigde Staten\nAnimatie / Komedie\n112 minuten\n\ngeregisseerd door John Lasseter en Brad Lewis\nmet de stemmen van Owen Wilson, Larry The Cable Guy en Bonnie Hunt\n\nDe grote ster uit het racecircuit Lightning McQueen en zijn trouwe mecanicien en vriend Mater reizen naar Japan en Europa voor hun eerste grote Grand Prix. Maar alsof de snelste auto ter wereld worden nog niet moeilijk genoeg is, raakt Mater betrokken bij een internationaal spionagecomplot. Nu moet hij zijn tijd verdelen tussen een geheime spionage-missie en het assisteren van Lightning op het circuit.\n\n\n\n\n\n\nScreenshots:\n &lt;a href=&quot;\nhttp://img24.imageshack.us/img24/8205/screenshot1ae.jpg&quot; rel=&quot;nofollow&quot; target=&quot;_NEW&quot;&gt;\nhttp://img24.imageshack.us/img24/8205/screenshot1ae.jpg&lt;/a&gt;\n &lt;a href=&quot;\nhttp://img442.imageshack.us/img442/6849/screenshot2ii.jpg&quot; rel=&quot;nofollow&quot; target=&quot;_NEW&quot;&gt;\nhttp://img442.imageshack.us/img442/6849/screenshot2ii.jpg&lt;/a&gt;\n &lt;a href=&quot;\nhttp://img13.imageshack.us/img13/5938/screenshot3ck.jpg&quot; rel=&quot;nofollow&quot; target=&quot;_NEW&quot;&gt;\nhttp://img13.imageshack.us/img13/5938/screenshot3ck.jpg&lt;/a&gt;\n &lt;a href=&quot;\nhttp://img38.imageshack.us/img38/572/screenshot3ak.jpg&quot; rel=&quot;nofollow&quot; target=&quot;_NEW&quot;&gt;\nhttp://img38.imageshack.us/img38/572/screenshot3ak.jpg&lt;/a&gt;\n\n\n\nINFO;\n\n\nFormat                                   : AVI\nFormat/Info                              : Audio Video Interleave\nFile size                                : 700 MiB\nDuration                                 : 1h 41mn\nOverall bit rate mode                    : Variable\nOverall bit rate                         : 961 Kbps\n\n\nVideo\nID                                       : 0\nFormat                                   : MPEG-4 Visual\nFormat profile                           : Advanced Simple@L5\nFormat settings, BVOP                    : 1\nFormat settings, QPel                    : No\nFormat settings, GMC                     : No warppoints\nFormat settings, Matrix                  : Custom\nCodec ID                                 : XVID\nCodec ID/Hint                            : XviD\nDuration                                 : 1h 41mn\nBit rate                                 : 831 Kbps\nWidth                                    : 576 pixels\nHeight                                   : 320 pixels\nDisplay aspect ratio                     : 16:9\nFrame rate                               : 25.000 fps\nColor space                              : YUV\nChroma subsampling                       : 4:2:0\nBit depth                                : 8 bits\nScan type                                : Progressive\nCompression mode                         : Lossy\nBits/(Pixel*Frame)                       : 0.180\nStream size                              : 606 MiB (87%)\nWriting library                          : XviD 64\n\nAudio\nID                                       : 1\nFormat                                   : MPEG Audio\nFormat version                           : Version 1\nFormat profile                           : Layer 3\nMode                                     : Joint stereo\nCodec ID                                 : 55\nCodec ID/Hint                            : MP3\nDuration                                 : 1h 41mn\nBit rate mode                            : Variable\nBit rate                                 : 117 Kbps\nChannel(s)                               : 2 channels\nSampling rate                            : 48.0 KHz\nCompression mode                         : Lossy\nStream size                              : 85.1 MiB (12%)\nAlignment                                : Aligned on interleaves\nInterleave, duration                     : 24 ms (0.60 video frame)\n\n\n\n &lt;a href=&quot;\nhttp://www.imdb.com/title/tt1216475/&quot; rel=&quot;nofollow&quot; target=&quot;_NEW&quot;&gt;\nhttp://www.imdb.com/title/tt1216475/&lt;/a&gt; &lt;a href=&quot;\nhttp://www.moviemeter.nl/film/71924&quot; rel=&quot;nofollow&quot; target=&quot;_NEW&quot;&gt;\nhttp://www.moviemeter.nl/film/71924&lt;/a&gt;\n\n\n\n\nDeze film wordt u aangeboden door het DutchReleaseTeam.\nVoor de reviews van de nieuwste films, muziek, series, games etc\nga dan eens naar http://www.hetmultimediacafe.be\n\nDutchReleaseteam = Hardcoded Dutch Subs","torrent":{"xt":"urn:btih:324d3439282b5bf51e0ffa77f82aeb65ee54565d","amp;dn":"Cars+2+%282011%29+DVDRip+NL+gesproken+DutchReleaseTeam","amp;tr":["udp%3A%2F%2Ftracker.openbittorrent.com%3A80","udp%3A%2F%2Fopen.demonii.com%3A1337","udp%3A%2F%2Ftracker.coppersurfer.tk%3A6969","udp%3A%2F%2Fexodus.desync.com%3A6969"],"infoHash":"324d3439282b5bf51e0ffa77f82aeb65ee54565d","infoHashBuffer":{"type":"Buffer","data":[50,77,52,57,40,43,91,245,30,15,250,119,248,42,235,101,238,84,86,93]},"announce":[],"urlList":[]}}